<?xml version="1.0" encoding="UTF-8" standalone="no"?>
<!-- Generator: Gravit.io -->
<svg xmlns="http://www.w3.org/2000/svg" xmlns:xlink="http://www.w3.org/1999/xlink" style="isolation:isolate" viewBox="0 0 24 24" width="24pt" height="24pt">
  <path d=" M 16.51 17.067 L 16.608 17.038 L 16.725 17.058 L 16.862 17.165 L 17.977 19.102 L 18.016 19.22 L 18.007 19.288 C 18.007 19.298 18.007 19.298 18.007 19.308 C 17.987 19.386 17.928 19.464 17.86 19.503 C 17.018 19.992 16.118 20.364 15.17 20.618 C 14.23 20.873 13.252 21 12.274 21 C 10.601 21 9.007 20.335 7.833 19.151 C 6.649 17.977 5.993 16.383 5.984 14.71 C 5.993 12.724 6.942 10.855 8.547 9.672 C 7.95 8.958 7.617 8.048 7.617 7.109 C 7.617 6.023 8.048 4.976 8.821 4.203 C 9.593 3.43 10.64 3 11.726 3 C 12.45 3 13.164 3.186 13.78 3.558 C 13.8 3.567 13.82 3.577 13.839 3.597 L 13.927 3.714 L 13.937 3.832 L 13.908 3.949 L 12.812 5.857 C 12.773 5.925 12.704 5.974 12.626 6.003 C 12.616 6.003 12.607 6.003 12.607 6.003 L 12.528 6.013 L 12.44 5.993 C 12.43 5.984 12.411 5.984 12.401 5.974 C 12.293 5.915 12.176 5.866 12.059 5.837 C 11.951 5.808 11.843 5.798 11.726 5.798 L 11.716 5.798 C 11.374 5.798 11.041 5.935 10.787 6.17 C 10.542 6.424 10.405 6.757 10.405 7.099 L 10.405 7.109 L 10.405 7.118 C 10.405 7.441 10.533 7.754 10.748 7.999 C 10.953 8.224 11.227 8.371 11.53 8.429 L 16.598 7.05 L 17.322 9.74 L 11.364 11.345 C 11.364 11.345 11.364 11.345 11.364 11.345 C 10.621 11.54 9.965 11.98 9.496 12.587 C 9.036 13.203 8.782 13.947 8.782 14.71 C 8.782 15.639 9.143 16.529 9.799 17.185 C 10.454 17.84 11.345 18.212 12.274 18.202 C 13.741 18.202 15.189 17.821 16.461 17.087 C 16.48 17.077 16.49 17.067 16.51 17.067 Z " fill="#ffffff"/>
</svg>