<?xml version="1.0" standalone="no"?>
<!DOCTYPE svg PUBLIC "-//W3C//DTD SVG 20010904//EN"
 "http://www.w3.org/TR/2001/REC-SVG-20010904/DTD/svg10.dtd">
<svg version="1.0" xmlns="http://www.w3.org/2000/svg"
 width="700.000000pt" height="700.000000pt" viewBox="0 0 700.000000 700.000000"
 preserveAspectRatio="xMidYMid meet">
<metadata>
Created by potrace 1.14, written by Peter Selinger 2001-2017
</metadata>
<g transform="translate(0.000000,700.000000) scale(0.100000,-0.100000)"
fill="#000000" stroke="none">
<path d="M1341 6112 c-213 -43 -401 -227 -452 -442 -20 -84 -21 -4212 -1
-4320 39 -217 215 -402 437 -460 40 -11 345 -14 1550 -15 l1499 -1 876 876
875 875 -1 1505 -1 1505 -22 70 c-65 202 -230 358 -431 406 -82 19 -4232 20
-4329 1z m4195 -575 c4 -3 7 -2148 4 -2562 l0 -60 -727 0 -728 0 -1 -722 c0
-398 -3 -725 -6 -728 -6 -7 -2609 -8 -2615 -1 -4 3 -6 3824 -3 4048 0 22 5 27
28 30 42 5 4043 0 4048 -5z"/>
<path d="M2043 4376 l2 -291 1455 0 1455 0 2 270 c1 149 0 279 -2 291 l-5 21
-1454 0 -1455 0 2 -291z"/>
<path d="M2042 3211 c-1 -214 3 -290 11 -293 7 -2 334 -3 727 -3 l715 1 3 292
2 292 -729 0 -729 0 0 -289z"/>
</g>
</svg>
